<svg xmlns="http://www.w3.org/2000/svg" version="1.1" xmlns:xlink="http://www.w3.org/1999/xlink" xmlns:svgjs="http://svgjs.dev/svgjs" width="1440" height="560" preserveAspectRatio="none" viewBox="0 0 1440 560"><g mask="url(&quot;#SvgjsMask2210&quot;)" fill="none"><rect width="1440" height="560" x="0" y="0" fill="#0e2a47"></rect><path d="M80.69 273.25L177.69 329.25L177.69 441.25L80.69 497.25L-16.31 441.25L-16.31 329.25zM177.69 441.25L274.69 497.25L274.69 609.25L177.69 665.25L80.69 609.25L80.69 497.25zM371.68 441.25L468.68 497.25L468.68 609.25L371.68 665.25L274.69 609.25L274.69 497.25zM565.68 105.25L662.68 161.25L662.68 273.25L565.68 329.25L468.68 273.25L468.68 161.25zM565.68 441.25L662.68 497.25L662.68 609.25L565.68 665.25L468.68 609.25L468.68 497.25zM856.67 273.25L953.67 329.25L953.67 441.25L856.67 497.25L759.67 441.25L759.67 329.25zM1341.66 441.25L1438.66 497.25L1438.66 609.25L1341.66 665.25L1244.66 609.25L1244.66 497.25zM1438.66 -62.75L1535.65 -6.75L1535.65 105.25L1438.66 161.25L1341.66 105.25L1341.66 -6.75z" stroke="#03305d" stroke-width="2"></path><path d="M69.49 273.25 a11.2 11.2 0 1 0 22.4 0 a11.2 11.2 0 1 0 -22.4 0zM166.49 329.25 a11.2 11.2 0 1 0 22.4 0 a11.2 11.2 0 1 0 -22.4 0zM166.49 441.25 a11.2 11.2 0 1 0 22.4 0 a11.2 11.2 0 1 0 -22.4 0zM69.49 497.25 a11.2 11.2 0 1 0 22.4 0 a11.2 11.2 0 1 0 -22.4 0zM-27.51 441.25 a11.2 11.2 0 1 0 22.4 0 a11.2 11.2 0 1 0 -22.4 0zM-27.51 329.25 a11.2 11.2 0 1 0 22.4 0 a11.2 11.2 0 1 0 -22.4 0zM263.49 497.25 a11.2 11.2 0 1 0 22.4 0 a11.2 11.2 0 1 0 -22.4 0zM263.49 609.25 a11.2 11.2 0 1 0 22.4 0 a11.2 11.2 0 1 0 -22.4 0zM166.49 665.25 a11.2 11.2 0 1 0 22.4 0 a11.2 11.2 0 1 0 -22.4 0zM69.49 609.25 a11.2 11.2 0 1 0 22.4 0 a11.2 11.2 0 1 0 -22.4 0zM360.48 441.25 a11.2 11.2 0 1 0 22.4 0 a11.2 11.2 0 1 0 -22.4 0zM457.48 497.25 a11.2 11.2 0 1 0 22.4 0 a11.2 11.2 0 1 0 -22.4 0zM457.48 609.25 a11.2 11.2 0 1 0 22.4 0 a11.2 11.2 0 1 0 -22.4 0zM360.48 665.25 a11.2 11.2 0 1 0 22.4 0 a11.2 11.2 0 1 0 -22.4 0zM554.48 105.25 a11.2 11.2 0 1 0 22.4 0 a11.2 11.2 0 1 0 -22.4 0zM651.48 161.25 a11.2 11.2 0 1 0 22.4 0 a11.2 11.2 0 1 0 -22.4 0zM651.48 273.25 a11.2 11.2 0 1 0 22.4 0 a11.2 11.2 0 1 0 -22.4 0zM554.48 329.25 a11.2 11.2 0 1 0 22.4 0 a11.2 11.2 0 1 0 -22.4 0zM457.48 273.25 a11.2 11.2 0 1 0 22.4 0 a11.2 11.2 0 1 0 -22.4 0zM457.48 161.25 a11.2 11.2 0 1 0 22.4 0 a11.2 11.2 0 1 0 -22.4 0zM554.48 441.25 a11.2 11.2 0 1 0 22.4 0 a11.2 11.2 0 1 0 -22.4 0zM651.48 497.25 a11.2 11.2 0 1 0 22.4 0 a11.2 11.2 0 1 0 -22.4 0zM651.48 609.25 a11.2 11.2 0 1 0 22.4 0 a11.2 11.2 0 1 0 -22.4 0zM554.48 665.25 a11.2 11.2 0 1 0 22.4 0 a11.2 11.2 0 1 0 -22.4 0zM845.47 273.25 a11.2 11.2 0 1 0 22.4 0 a11.2 11.2 0 1 0 -22.4 0zM942.47 329.25 a11.2 11.2 0 1 0 22.4 0 a11.2 11.2 0 1 0 -22.4 0zM942.47 441.25 a11.2 11.2 0 1 0 22.4 0 a11.2 11.2 0 1 0 -22.4 0zM845.47 497.25 a11.2 11.2 0 1 0 22.4 0 a11.2 11.2 0 1 0 -22.4 0zM748.47 441.25 a11.2 11.2 0 1 0 22.4 0 a11.2 11.2 0 1 0 -22.4 0zM748.47 329.25 a11.2 11.2 0 1 0 22.4 0 a11.2 11.2 0 1 0 -22.4 0zM1330.46 441.25 a11.2 11.2 0 1 0 22.4 0 a11.2 11.2 0 1 0 -22.4 0zM1427.46 497.25 a11.2 11.2 0 1 0 22.4 0 a11.2 11.2 0 1 0 -22.4 0zM1427.46 609.25 a11.2 11.2 0 1 0 22.4 0 a11.2 11.2 0 1 0 -22.4 0zM1330.46 665.25 a11.2 11.2 0 1 0 22.4 0 a11.2 11.2 0 1 0 -22.4 0zM1233.46 609.25 a11.2 11.2 0 1 0 22.4 0 a11.2 11.2 0 1 0 -22.4 0zM1233.46 497.25 a11.2 11.2 0 1 0 22.4 0 a11.2 11.2 0 1 0 -22.4 0zM1427.46 -62.75 a11.2 11.2 0 1 0 22.4 0 a11.2 11.2 0 1 0 -22.4 0zM1524.45 -6.75 a11.2 11.2 0 1 0 22.4 0 a11.2 11.2 0 1 0 -22.4 0zM1524.45 105.25 a11.2 11.2 0 1 0 22.4 0 a11.2 11.2 0 1 0 -22.4 0zM1427.46 161.25 a11.2 11.2 0 1 0 22.4 0 a11.2 11.2 0 1 0 -22.4 0zM1330.46 105.25 a11.2 11.2 0 1 0 22.4 0 a11.2 11.2 0 1 0 -22.4 0zM1330.46 -6.75 a11.2 11.2 0 1 0 22.4 0 a11.2 11.2 0 1 0 -22.4 0z" fill="#03305d"></path><path d="M2.37 148.02L48.27 174.52L48.27 227.52L2.37 254.02L-43.53 227.52L-43.53 174.52zM2.37 307.02L48.27 333.52L48.27 386.52L2.37 413.02L-43.53 386.52L-43.53 333.52zM48.27 386.52L94.17 413.02L94.17 466.02L48.27 492.52L2.37 466.02L2.37 413.02zM94.17 -10.98L140.07 15.52L140.07 68.52L94.17 95.02L48.27 68.52L48.27 15.52zM140.07 227.52L185.97 254.02L185.97 307.02L140.07 333.52L94.17 307.02L94.17 254.02zM140.07 545.52L185.97 572.02L185.97 625.02L140.07 651.52L94.17 625.02L94.17 572.02zM185.97 -10.98L231.87 15.52L231.87 68.52L185.97 95.02L140.07 68.52L140.07 15.52zM231.87 68.52L277.77 95.02L277.77 148.02L231.87 174.52L185.97 148.02L185.97 95.02zM231.87 386.52L277.77 413.02L277.77 466.02L231.87 492.52L185.97 466.02L185.97 413.02zM185.97 466.02L231.87 492.52L231.87 545.52L185.97 572.02L140.07 545.52L140.07 492.52zM231.87 545.52L277.77 572.02L277.77 625.02L231.87 651.52L185.97 625.02L185.97 572.02zM323.67 68.52L369.58 95.02L369.58 148.02L323.67 174.52L277.77 148.02L277.77 95.02zM323.67 227.52L369.58 254.02L369.58 307.02L323.67 333.52L277.77 307.02L277.77 254.02zM277.77 466.02L323.67 492.52L323.67 545.52L277.77 572.02L231.87 545.52L231.87 492.52zM369.58 148.02L415.48 174.52L415.48 227.52L369.58 254.02L323.67 227.52L323.67 174.52zM415.48 227.52L461.38 254.02L461.38 307.02L415.48 333.52L369.58 307.02L369.58 254.02zM369.58 307.02L415.48 333.52L415.48 386.52L369.58 413.02L323.67 386.52L323.67 333.52zM369.58 466.02L415.48 492.52L415.48 545.52L369.58 572.02L323.67 545.52L323.67 492.52zM461.38 -10.98L507.28 15.52L507.28 68.52L461.38 95.02L415.48 68.52L415.48 15.52zM507.28 386.52L553.18 413.02L553.18 466.02L507.28 492.52L461.38 466.02L461.38 413.02zM461.38 466.02L507.28 492.52L507.28 545.52L461.38 572.02L415.48 545.52L415.48 492.52zM507.28 545.52L553.18 572.02L553.18 625.02L507.28 651.52L461.38 625.02L461.38 572.02zM599.08 227.52L644.98 254.02L644.98 307.02L599.08 333.52L553.18 307.02L553.18 254.02zM553.18 466.02L599.08 492.52L599.08 545.52L553.18 572.02L507.28 545.52L507.28 492.52zM644.98 -10.98L690.88 15.52L690.88 68.52L644.98 95.02L599.08 68.52L599.08 15.52zM644.98 307.02L690.88 333.52L690.88 386.52L644.98 413.02L599.08 386.52L599.08 333.52zM644.98 466.02L690.88 492.52L690.88 545.52L644.98 572.02L599.08 545.52L599.08 492.52zM690.88 545.52L736.78 572.02L736.78 625.02L690.88 651.52L644.98 625.02L644.98 572.02zM736.78 -10.98L782.68 15.52L782.68 68.52L736.78 95.02L690.88 68.52L690.88 15.52zM782.68 68.52L828.58 95.02L828.58 148.02L782.68 174.52L736.78 148.02L736.78 95.02zM782.68 227.52L828.58 254.02L828.58 307.02L782.68 333.52L736.78 307.02L736.78 254.02zM782.68 386.52L828.58 413.02L828.58 466.02L782.68 492.52L736.78 466.02L736.78 413.02zM828.58 148.02L874.48 174.52L874.48 227.52L828.58 254.02L782.68 227.52L782.68 174.52zM874.48 227.52L920.38 254.02L920.38 307.02L874.48 333.52L828.58 307.02L828.58 254.02zM828.58 307.02L874.48 333.52L874.48 386.52L828.58 413.02L782.68 386.52L782.68 333.52zM874.48 545.52L920.38 572.02L920.38 625.02L874.48 651.52L828.58 625.02L828.58 572.02zM920.38 -10.98L966.28 15.52L966.28 68.52L920.38 95.02L874.48 68.52L874.48 15.52zM920.38 148.02L966.28 174.52L966.28 227.52L920.38 254.02L874.48 227.52L874.48 174.52zM920.38 307.02L966.28 333.52L966.28 386.52L920.38 413.02L874.48 386.52L874.48 333.52zM920.38 466.02L966.28 492.52L966.28 545.52L920.38 572.02L874.48 545.52L874.48 492.52zM966.28 545.52L1012.18 572.02L1012.18 625.02L966.28 651.52L920.38 625.02L920.38 572.02zM1012.18 -10.98L1058.08 15.52L1058.08 68.52L1012.18 95.02L966.28 68.52L966.28 15.52zM1012.18 148.02L1058.08 174.52L1058.08 227.52L1012.18 254.02L966.28 227.52L966.28 174.52zM1012.18 307.02L1058.08 333.52L1058.08 386.52L1012.18 413.02L966.28 386.52L966.28 333.52zM1012.18 466.02L1058.08 492.52L1058.08 545.52L1012.18 572.02L966.28 545.52L966.28 492.52zM1103.99 -10.98L1149.89 15.52L1149.89 68.52L1103.99 95.02L1058.08 68.52L1058.08 15.52zM1103.99 148.02L1149.89 174.52L1149.89 227.52L1103.99 254.02L1058.08 227.52L1058.08 174.52zM1149.89 227.52L1195.79 254.02L1195.79 307.02L1149.89 333.52L1103.99 307.02L1103.99 254.02zM1149.89 386.52L1195.79 413.02L1195.79 466.02L1149.89 492.52L1103.99 466.02L1103.99 413.02zM1149.89 545.52L1195.79 572.02L1195.79 625.02L1149.89 651.52L1103.99 625.02L1103.99 572.02zM1241.69 68.52L1287.59 95.02L1287.59 148.02L1241.69 174.52L1195.79 148.02L1195.79 95.02zM1195.79 148.02L1241.69 174.52L1241.69 227.52L1195.79 254.02L1149.89 227.52L1149.89 174.52zM1241.69 386.52L1287.59 413.02L1287.59 466.02L1241.69 492.52L1195.79 466.02L1195.79 413.02zM1241.69 545.52L1287.59 572.02L1287.59 625.02L1241.69 651.52L1195.79 625.02L1195.79 572.02zM1287.59 -10.98L1333.49 15.52L1333.49 68.52L1287.59 95.02L1241.69 68.52L1241.69 15.52zM1333.49 68.52L1379.39 95.02L1379.39 148.02L1333.49 174.52L1287.59 148.02L1287.59 95.02zM1333.49 227.52L1379.39 254.02L1379.39 307.02L1333.49 333.52L1287.59 307.02L1287.59 254.02zM1333.49 386.52L1379.39 413.02L1379.39 466.02L1333.49 492.52L1287.59 466.02L1287.59 413.02zM1287.59 466.02L1333.49 492.52L1333.49 545.52L1287.59 572.02L1241.69 545.52L1241.69 492.52zM1379.39 148.02L1425.29 174.52L1425.29 227.52L1379.39 254.02L1333.49 227.52L1333.49 174.52zM1379.39 307.02L1425.29 333.52L1425.29 386.52L1379.39 413.02L1333.49 386.52L1333.49 333.52zM1425.29 545.52L1471.19 572.02L1471.19 625.02L1425.29 651.52L1379.39 625.02L1379.39 572.02z" stroke="url(&quot;#SvgjsLinearGradient2211&quot;)" stroke-width="2"></path></g><defs><mask id="SvgjsMask2210"><rect width="1440" height="560" fill="#ffffff"></rect></mask><linearGradient x1="720" y1="560" x2="720" y2="0" gradientUnits="userSpaceOnUse" id="SvgjsLinearGradient2211"><stop stop-color="#0e2a47" offset="0"></stop><stop stop-color="rgba(39, 76, 125, 1)" offset="1"></stop></linearGradient></defs></svg>